<svg xmlns="http://www.w3.org/2000/svg" viewBox="0 0 878.15 493.93"><defs><style>.cls-1{fill:#b40039;}.cls-2,.cls-3{stroke:#000;stroke-miterlimit:10;}.cls-2{stroke-width:11px;}.cls-3{fill:none;}</style></defs><g id="Capa_2" data-name="Capa 2"><g id="Capa_4" data-name="Capa 4"><polygon class="cls-1" points="236.5 111.44 149.82 113.92 47.05 13.62 170.88 0 236.5 111.44"/><polygon class="cls-1" points="81.72 430.9 85.44 464.33 128.78 450.71 128.78 424.66 81.72 430.9"/><polygon class="cls-1" points="81.72 381.66 81.72 407.88 12.38 398.71 78.01 427.19 126.3 421 126.3 378.16 81.72 381.66"/><polygon class="cls-1" points="7.43 335.56 81.72 377.66 128.78 372.41 126.3 330.61 84.2 333.95 80.39 354.13 7.43 335.56"/><polygon class="cls-1" points="0 271.17 81.72 330.61 126.3 322.22 128.78 284.47 87.91 290.98 86.68 297.17 0 271.17"/><polygon class="cls-1" points="4.95 214.21 86.68 286.03 133.16 277.86 143.63 237.74 94 250.12 4.95 214.21"/><polygon class="cls-1" points="9.91 168.4 99.06 242.69 175.83 229.07 183.26 193.16 108.96 205.55 9.91 168.4"/><polygon class="cls-1" points="14.86 122.58 112.68 199.35 188.21 186.97 208.02 151.06 125.06 164.68 14.86 122.58"/><polygon class="cls-1" points="28.48 69.34 128.78 155.46 211.74 144.87 232.8 113.92 141.78 118.05 28.48 69.34"/><polygon class="cls-1" points="158.09 214.21 224.74 274.27 276.03 274.27 232.8 205.55 158.09 214.21"/><polygon class="cls-1" points="147.84 250.12 208.02 303.11 256.93 297.79 270.55 279.22 217.06 280.27 147.84 250.12"/><polygon class="cls-1" points="138.98 282.32 196.32 330.61 245.79 322.56 255.99 303.11 204.93 308.94 138.98 282.32"/><polygon class="cls-1" points="134.35 311.41 185.13 354.13 235.88 346.08 242.07 328.75 192.54 336.18 134.35 311.41"/><polygon class="cls-1" points="130.63 339.89 180.16 384.47 222.26 374.56 231.75 354.13 188.21 362.18 130.63 339.89"/><polygon class="cls-1" points="130.63 378.16 176.45 411.71 217.06 402.68 222.26 380.75 181.19 392.61 130.63 378.16"/><polygon class="cls-1" points="134.35 416.39 176.45 440.63 213.59 432.76 217.06 408.46 181.19 415.45 181.19 427.19 134.35 416.39"/><polygon class="cls-1" points="134.35 456.01 175.71 474.66 213.57 465.33 213.57 440.63 178.92 447.62 178.92 460 134.35 456.01"/><path class="cls-2" d="M556.77,373.34c-2-34.61-4.33-77.83-4.33-108.93h-.83c-9.36,28.8-20.58,60.22-34.17,95.45l-47,120.24H444.89L401.81,361.24c-12.69-35.77-22.84-67.59-30.29-96.83h-.72c-1.19,31.09-2.76,74.06-5.34,111.47l-7.1,105.76H327.12l17.64-245.07h43.17L433.4,357.36c10.58,29.23,19.36,57.2,26,82h.93c6.88-23.79,16.35-52,28.14-82l48.35-120.83h42.91l15.38,245.07H562.79Z"/><path d="M821.57,406.76l-77.89.06V359.7H877.29c-.42,73.49-60.14,133.73-133.73,133.73a133.73,133.73,0,1,1,106.94-214l.25.29-35.3,30.57-.08-.09c-16.35-21.29-43.23-35.9-71.81-35.9a89.15,89.15,0,1,0,0,178.3C776.88,452.57,806.26,433.84,821.57,406.76Z"/><polyline class="cls-3" points="877.9 359.7 877.29 359.7 743.68 359.7 743.68 406.82 821.57 406.76 822.18 406.76"/><path class="cls-3" d="M877.29,359.7c-.42,73.49-60.14,133.73-133.73,133.73a133.73,133.73,0,1,1,106.94-214"/><path class="cls-3" d="M821.57,406.76c-15.31,27.08-44.69,45.81-78,45.81a89.15,89.15,0,1,1,0-178.3c28.58,0,55.46,14.61,71.81,35.9"/><polyline class="cls-3" points="814.99 310.66 815.45 310.26 850.75 279.69 851.28 279.22"/></g></g></svg>
