<svg xmlns="http://www.w3.org/2000/svg" viewBox="0 0 721.02 408.07"><defs><style>.cls-1,.cls-2{fill:#fff;}.cls-2,.cls-3{stroke:#fff;stroke-miterlimit:10;}.cls-2{stroke-width:11px;}.cls-3{fill:none;}</style></defs><g id="Capa_2" data-name="Capa 2"><g id="Capa_4" data-name="Capa 4"><polygon class="cls-1" points="194.17 91.49 123.01 93.53 38.63 11.18 140.29 0 194.17 91.49"/><polygon class="cls-1" points="67.09 353.77 70.14 381.22 105.73 370.04 105.73 348.65 67.09 353.77"/><polygon class="cls-1" points="67.09 313.35 67.09 334.87 10.17 327.34 64.05 350.73 103.69 345.64 103.69 310.48 67.09 313.35"/><polygon class="cls-1" points="6.1 275.5 67.09 310.06 105.73 305.75 103.69 271.43 69.13 274.18 66 290.75 6.1 275.5"/><polygon class="cls-1" points="0 222.63 67.09 271.43 103.69 264.55 105.73 233.55 72.18 238.9 71.16 243.98 0 222.63"/><polygon class="cls-1" points="4.07 175.87 71.16 234.83 109.32 228.12 117.92 195.19 77.17 205.35 4.07 175.87"/><polygon class="cls-1" points="8.13 138.26 81.33 199.25 144.36 188.07 150.46 158.59 89.46 168.75 8.13 138.26"/><polygon class="cls-1" points="12.2 100.64 92.51 163.67 154.52 153.51 170.79 124.03 102.68 135.21 12.2 100.64"/><polygon class="cls-1" points="23.38 56.93 105.73 127.63 173.84 118.94 191.13 93.53 116.4 96.92 23.38 56.93"/><polygon class="cls-1" points="129.8 175.87 184.51 225.18 226.62 225.18 191.13 168.75 129.8 175.87"/><polygon class="cls-1" points="121.38 205.35 170.79 248.86 210.94 244.49 222.13 229.24 178.21 230.1 121.38 205.35"/><polygon class="cls-1" points="114.11 231.78 161.18 271.43 201.79 264.82 210.17 248.86 168.25 253.64 114.11 231.78"/><polygon class="cls-1" points="110.3 255.67 151.99 290.75 193.66 284.14 198.74 269.91 158.08 276 110.3 255.67"/><polygon class="cls-1" points="107.25 279.06 147.91 315.65 182.48 307.52 190.27 290.75 154.52 297.35 107.25 279.06"/><polygon class="cls-1" points="107.25 310.48 144.87 338.02 178.21 330.6 182.48 312.6 148.76 322.34 107.25 310.48"/><polygon class="cls-1" points="110.3 341.86 144.87 361.76 175.36 355.3 178.21 335.35 148.76 341.09 148.76 350.73 110.3 341.86"/><polygon class="cls-1" points="110.3 374.39 144.26 389.7 175.34 382.04 175.34 361.76 146.9 367.5 146.9 377.67 110.3 374.39"/><polygon class="cls-1" points="148.76 393.14 148.76 408.07 175.34 400.61 175.34 385.87 148.76 393.14"/><path class="cls-2" d="M457.12,306.51c-1.62-28.41-3.56-63.9-3.56-89.43h-.68c-7.68,23.65-16.9,49.45-28.05,78.37l-38.58,98.72h-21l-35.37-97.59c-10.42-29.37-18.75-55.49-24.87-79.5h-.59c-1,25.53-2.27,60.81-4.39,91.52l-5.82,86.83H268.57l14.48-201.2h35.44l37.34,99.17c8.68,24,15.89,47,21.34,67.32h.76c5.66-19.53,13.43-42.7,23.11-67.29l39.69-99.2H476l12.63,201.2H462.06Z"/><path class="cls-1" d="M674.51,334l-63.93.05V295.32H720.26c-.35,60.34-49.38,109.79-109.79,109.79a109.79,109.79,0,1,1,87.8-175.72l.2.24-29,25.1-.06-.07c-13.43-17.49-35.5-29.48-59-29.48a73.2,73.2,0,1,0,0,146.39A74,74,0,0,0,674.51,334Z"/><polyline class="cls-3" points="720.77 295.32 720.26 295.32 610.58 295.32 610.58 334 674.51 333.95 675.02 333.95"/><path class="cls-3" d="M720.26,295.32c-.35,60.34-49.38,109.79-109.79,109.79a109.79,109.79,0,1,1,87.8-175.72"/><path class="cls-3" d="M674.51,334a74,74,0,0,1-64,37.62,73.2,73.2,0,1,1,0-146.39c23.46,0,45.53,12,59,29.48"/><polyline class="cls-3" points="669.11 255.05 669.49 254.73 698.47 229.63 698.91 229.24"/></g></g></svg>
