<?xml version="1.0" encoding="UTF-8" standalone="no"?>
<svg width="120" height="40" viewBox="0 0 120 40" fill="none" xmlns="http://www.w3.org/2000/svg">
  <!-- Base del logo -->
  <path d="M10 6H30L24 20H4L10 6Z" fill="#B40039" />
  <path d="M14 24H34L28 38H8L14 24Z" fill="#B40039" />
  
  <!-- Letra M -->
  <path d="M42 8H46L48 20L52 8H56L58 20L62 8H66L60 32H56L54 20L50 32H46L42 8Z" fill="#333333" />
  
  <!-- Letra G -->
  <path d="M68 8H88V14H74V18H84V24H74V26H88V32H68V8Z" fill="#333333" />
  
  <!-- Texto "SERVICIO INMOBILIARIO" usando paths -->
  <path d="M43 35.5H44.2L44.5 34H46.5L46.8 35.5H48L46 30H45L43 35.5ZM44.8 33L45.5 31L46.2 33H44.8Z" fill="#333333" />
  <path d="M48.5 35.5H49.7V33.5C49.7 33 50 32.7 50.5 32.7C51 32.7 51.2 33 51.2 33.5V35.5H52.4V33.2C52.4 32.3 51.8 31.7 50.9 31.7C50.4 31.7 49.9 31.9 49.7 32.3V30H48.5V35.5Z" fill="#333333" />
  <path d="M53.2 35.5H54.4V32.8C54.4 32.1 55 31.7 55.5 31.7C55.6 31.7 55.8 31.7 55.9 31.8V31C55.8 30.9 55.6 30.9 55.5 30.9C55 30.9 54.6 31.2 54.4 31.6V31H53.2V35.5Z" fill="#333333" />
  <path d="M56.2 33.2C56.2 34.6 57.2 35.6 58.5 35.6C59.2 35.6 59.7 35.3 60 34.9V35.5H61.2V31H60V31.6C59.7 31.2 59.2 30.9 58.5 30.9C57.2 30.9 56.2 31.9 56.2 33.2ZM60 33.2C60 34 59.5 34.5 58.7 34.5C58 34.5 57.4 34 57.4 33.2C57.4 32.5 58 32 58.7 32C59.5 32 60 32.5 60 33.2Z" fill="#333333" />
  <path d="M62.2 35.5H63.4V31H62.2V35.5ZM62.8 30.5C63.2 30.5 63.5 30.2 63.5 29.8C63.5 29.4 63.2 29.1 62.8 29.1C62.4 29.1 62.1 29.4 62.1 29.8C62.1 30.2 62.4 30.5 62.8 30.5Z" fill="#333333" />
  <path d="M66.7 35.5V34.4H65.8C65.5 34.4 65.3 34.2 65.3 33.9V32.1H66.7V31H65.3V29.8H64.1V31H63.4V32.1H64.1V34C64.1 35 64.6 35.5 65.5 35.5H66.7Z" fill="#333333" />
  <path d="M67.3 35.5H68.5V31H67.3V35.5ZM67.9 30.5C68.3 30.5 68.6 30.2 68.6 29.8C68.6 29.4 68.3 29.1 67.9 29.1C67.5 29.1 67.2 29.4 67.2 29.8C67.2 30.2 67.5 30.5 67.9 30.5Z" fill="#333333" />
  <path d="M72.4 31H71.3V30.1C71.3 29.7 71.5 29.5 71.9 29.5H72.4V28.5H71.7C70.8 28.5 70.1 29.1 70.1 30.1V31H69.4V32.1H70.1V35.5H71.3V32.1H72.4V31Z" fill="#333333" />
  <path d="M73.2 33.2C73.2 34.6 74.2 35.6 75.5 35.6C76.2 35.6 76.7 35.3 77 34.9V35.5H78.2V30H77V31.1C76.6 30.5 76 30 75.2 30C73.9 30 73.2 31.2 73.2 33.2ZM77 33.2C77 34 76.5 34.5 75.7 34.5C75 34.5 74.4 34 74.4 33.2C74.4 32.5 75 32 75.7 32C76.5 32 77 32.5 77 33.2Z" fill="#333333" />
  <path d="M82.2 31H81V34.3C81 34.8 80.7 35.1 80.2 35.1C79.7 35.1 79.5 34.8 79.5 34.3V31H78.3V34.6C78.3 35.3 78.8 35.8 79.5 35.8C80.1 35.8 80.6 35.6 81 35.1V35.5H82.2V31Z" fill="#333333" />
  <path d="M83.6 35.5H84.8V32.8C84.8 32.1 85.3 31.7 85.9 31.7C86.5 31.7 86.8 32 86.8 32.6V35.5H88V32.8C88 32.1 88.5 31.7 89.1 31.7C89.6 31.7 89.9 32 89.9 32.6V35.5H91.1V32.5C91.1 31.6 90.6 31 89.6 31C89 31 88.5 31.3 88.2 31.7C87.9 31.2 87.4 31 86.8 31C86.2 31 85.7 31.2 85.4 31.6V31H84.2L83.6 35.5Z" fill="#333333" />
  <path d="M92.2 33.2C92.2 34.6 93.2 35.6 94.5 35.6C95.2 35.6 95.7 35.3 96 34.9V35.5H97.2V31H96V31.6C95.7 31.2 95.2 30.9 94.5 30.9C93.2 30.9 92.2 31.9 92.2 33.2ZM96 33.2C96 34 95.5 34.5 94.7 34.5C94 34.5 57.4 34 57.4 33.2C57.4 32.5 58 32 58.7 32C59.5 32 60 32.5 60 33.2Z" fill="#333333" />
  <path d="M98.2 35.5H99.4V32.8C99.4 32.1 100 31.7 100.5 31.7C100.6 31.7 100.8 31.7 100.9 31.8V31C100.8 30.9 100.6 30.9 100.5 30.9C100 30.9 99.6 31.2 99.4 31.6V31H98.2V35.5Z" fill="#333333" />
  <path d="M101.6 35.5H102.8V31H101.6V35.5ZM102.2 30.5C102.6 30.5 102.9 30.2 102.9 29.8C102.9 29.4 102.6 29.1 102.2 29.1C101.8 29.1 101.5 29.4 101.5 29.8C101.5 30.2 101.8 30.5 102.2 30.5Z" fill="#333333" />
  <path d="M104.7 35.5H105.9V33.2C105.9 32.5 106.4 32 107 32C107.5 32 107.8 32.3 107.8 32.8V35.5H109V32.5C109 31.5 108.5 30.9 107.5 30.9C106.9 30.9 106.4 31.2 105.9 31.6V31H104.7V35.5Z" fill="#333333" />
  <path d="M113.2 31H112.1V30.1C112.1 29.7 112.3 29.5 112.7 29.5H113.2V28.5H112.5C111.6 28.5 110.9 29.1 110.9 30.1V31H110.2V32.1H110.9V35.5H112.1V32.1H113.2V31Z" fill="#333333" />
</svg>
